<svg xmlns="http://www.w3.org/2000/svg" xmlns:xlink="http://www.w3.org/1999/xlink" width="593.736" height="203.71" viewBox="0 0 593.736 203.71">
  <defs>
    <linearGradient id="linear-gradient" y1="0.5" x2="1" y2="0.5" gradientUnits="objectBoundingBox">
      <stop offset="0" stop-color="#4cbdeb"/>
      <stop offset="0.4" stop-color="#4cbdeb"/>
    </linearGradient>
  </defs>
  <g id="Group_7090" data-name="Group 7090" transform="translate(-352.791 -358.084)">
    <path id="Path_4226" data-name="Path 4226" d="M2192.62,2043.1V1987.69h16.049a15.9,15.9,0,0,1,11.927,4.771,16.377,16.377,0,0,1-11.927,28.067h-11.924v22.519Zm4.094-26.389h11.771a11.855,11.855,0,0,0,9.142-3.664,12.723,12.723,0,0,0,3.5-8.978,12.582,12.582,0,0,0-3.5-8.9,11.838,11.838,0,0,0-9.142-3.654h-11.771Z" transform="translate(-1596.516 -1585.458)" fill="#333" stroke="#333" stroke-width="0.5"/>
    <path id="Path_4227" data-name="Path 4227" d="M2233.16,2043.1v-55.408h3.931v23.052q3.223-8.331,13.593-8.342a14.21,14.21,0,0,1,10.891,4.371c2.784,2.867,4.095,6.756,4.095,11.607V2043.1H2261.7v-23.921c0-7.953-4.7-13.041-11.924-13.041-7.718,0-12.723,6.142-12.723,15.426v21.5Z" transform="translate(-1595.559 -1585.456)" fill="#333" stroke="#333" stroke-width="0.5"/>
    <path id="Path_4228" data-name="Path 4228" d="M2308.832,2002.7h3.972v40.064h-3.972v-8.342a12.718,12.718,0,0,1-5.722,6.674,18.531,18.531,0,0,1-10.236,2.7,19.185,19.185,0,0,1-14.329-6.039,22.35,22.35,0,0,1,0-30.052,19.185,19.185,0,0,1,14.329-6.04,18.594,18.594,0,0,1,10.238,2.784,12.576,12.576,0,0,1,5.72,6.591Zm-4.217,32.521a17.516,17.516,0,0,0,4.688-12.489,17.317,17.317,0,0,0-4.688-12.406,15.494,15.494,0,0,0-11.689-4.924,15.242,15.242,0,0,0-11.608,5.006,18.9,18.9,0,0,0,0,24.73,16.379,16.379,0,0,0,23.3.083Z" transform="translate(-1594.625 -1585.127)" fill="#333" stroke="#333" stroke-width="0.5"/>
    <path id="Path_4229" data-name="Path 4229" d="M2340.708,2002.142v4.094a22.917,22.917,0,0,0-2.549-.153c-4.217,0-7.391,1.434-9.623,4.207a16.32,16.32,0,0,0-3.335,10.5v21.936h-3.972v-40.064h3.972v8.026c1.984-5.8,6.52-8.66,13.593-8.66A11.561,11.561,0,0,1,2340.708,2002.142Z" transform="translate(-1593.479 -1585.118)" fill="#333" stroke="#333" stroke-width="0.5"/>
    <path id="Path_4230" data-name="Path 4230" d="M2404.146,2018.039v24.72H2400.2v-23.921c0-8.036-4.095-13.041-10.491-13.041-7.073,0-11.689,6.039-11.689,15.026v21.936h-3.972v-23.921c0-7.954-4.219-13.041-10.574-13.041-7,0-11.525,6.142-11.525,15.426v21.5h-3.981v-40.064h3.981v7.708c2.047-5.558,6.274-8.342,12.559-8.342,6.143,0,10.493,3.418,12.283,9.212,1.905-6.143,6.511-9.212,13.912-9.212C2398.9,2002.061,2404.146,2008.263,2404.146,2018.039Z" transform="translate(-1592.848 -1585.119)" fill="#333" stroke="#333" stroke-width="0.5"/>
    <path id="Path_4231" data-name="Path 4231" d="M2446.632,2002.7h3.972v40.065h-3.972v-8.342a12.677,12.677,0,0,1-5.722,6.674,18.532,18.532,0,0,1-10.176,2.7,19.215,19.215,0,0,1-14.391-6.04,22.355,22.355,0,0,1,0-30.053,19.215,19.215,0,0,1,14.392-6.039,18.559,18.559,0,0,1,10.175,2.784,12.531,12.531,0,0,1,5.722,6.591Zm-4.216,32.52a17.526,17.526,0,0,0,4.7-12.487,17.329,17.329,0,0,0-4.7-12.406,15.493,15.493,0,0,0-11.681-4.923,15.219,15.219,0,0,0-11.607,5.005,18.865,18.865,0,0,0,0,24.73,16.328,16.328,0,0,0,23.289.081Z" transform="translate(-1591.371 -1585.127)" fill="#333" stroke="#333" stroke-width="0.5"/>
    <path id="Path_4232" data-name="Path 4232" d="M2493.625,2007.956l-2.384,2.7a16.984,16.984,0,0,0-12.806-5.251,16.5,16.5,0,0,0-12.284,5.006,16.76,16.76,0,0,0-4.852,12.283,17.044,17.044,0,0,0,4.852,12.406,16.748,16.748,0,0,0,12.284,4.924,17.007,17.007,0,0,0,12.8-5.241l2.385,2.7c-3.9,4.207-8.987,6.274-15.189,6.274a21.066,21.066,0,0,1,0-42.133C2484.628,2001.671,2489.746,2003.739,2493.625,2007.956Z" transform="translate(-1590.266 -1585.128)" fill="#333" stroke="#333" stroke-width="0.5"/>
    <path id="Path_4233" data-name="Path 4233" d="M2512.416,2042.745l-15.906-40.065h4.095l13.828,35.223,14.791-35.223h4.218l-23.543,55.408H2505.8Z" transform="translate(-1587.292 -1585.104)" fill="#333" stroke="#333" stroke-width="0.5"/>
    <path id="Path_4234" data-name="Path 4234" d="M2191.727,2097.3c2.948,4.853,7.553,7.319,13.92,7.319,5.642,0,8.261-2.549,8.261-5.487,0-2.048-1.186-3.5-3.071-4.606a18.4,18.4,0,0,0-4.77-2.048c-1.351-.563-4.523-1.6-6.14-2.231-8.662-3.173-13.432-7.708-13.432-16.06a13.614,13.614,0,0,1,5.323-11.363,20.322,20.322,0,0,1,13.113-4.3c8.035,0,14.155,3.018,18.424,9.069l-8.189,6.192c-2.22-2.857-5.558-4.289-9.929-4.289-4.094,0-6.684,1.9-6.684,4.534a4.034,4.034,0,0,0,2.149,3.972c.871.481,1.75.88,2.467,1.2l3.973,1.351c1.832.635,3.419,1.188,4.77,1.75,10.093,3.808,14.146,8.507,14.146,16.451,0,10.236-6.993,16.94-20.585,16.94-11.209,0-19-5.016-22.735-12.284Z" transform="translate(-1593.678 -1583.784)" fill="#333"/>
    <path id="Path_4235" data-name="Path 4235" d="M2229.42,2094.334c0-6.274,2.046-11.374,6.14-15.182a22.082,22.082,0,0,1,15.591-5.8c6.141,0,11.044,1.986,14.861,5.875a19.779,19.779,0,0,1,5.724,14.474c0,1.352-.082,2.621-.152,3.818h-30.31c.235,4.77,4.37,7.871,10.646,7.871a13.783,13.783,0,0,0,9.785-3.9l6.91,6.6a23.165,23.165,0,0,1-17.249,7.306c-6.6,0-11.844-1.9-15.9-5.638s-6.049-8.825-6.049-15.11Zm30.37-4.535c0-3.736-3.891-6.674-8.659-6.674-5.171,0-9.387,2.938-9.705,6.674Z" transform="translate(-1592.577 -1583.434)" fill="#333"/>
    <path id="Path_4236" data-name="Path 4236" d="M2276.49,2114.445v-40.064h11.843v5.486c1.833-4.094,6.142-6.367,11.608-6.367a25.3,25.3,0,0,1,3.07.245v11.128a20.536,20.536,0,0,0-3.97-.4c-6.766,0-10.738,3.816-10.738,10.41v19.561Z" transform="translate(-1591.465 -1583.431)" fill="#333"/>
    <path id="Path_4237" data-name="Path 4237" d="M2319.986,2114.424l-17.166-40.064h12l10.5,25.437,10.41-25.437h12.006l-17.177,40.064Z" transform="translate(-1590.843 -1583.41)" fill="#333"/>
    <path id="Path_4238" data-name="Path 4238" d="M2356.635,2057.89a6.7,6.7,0,1,1-4.793,1.963A6.725,6.725,0,0,1,2356.635,2057.89Zm-5.886,56.923v-40.064H2362.6v40.064Z" transform="translate(-1589.732 -1583.799)" fill="#333"/>
    <path id="Path_4239" data-name="Path 4239" d="M2407.165,2080.58l-7.484,7.4a12.143,12.143,0,0,0-9.212-4.094,10.461,10.461,0,0,0,0,20.912,12.177,12.177,0,0,0,9.212-4.095l7.484,7.391a21.634,21.634,0,0,1-16.7,7.473,22.052,22.052,0,0,1-15.742-6.04,21.107,21.107,0,0,1,0-30.217,22.1,22.1,0,0,1,15.742-6.142A21.635,21.635,0,0,1,2407.165,2080.58Z" transform="translate(-1589.296 -1583.438)" fill="#333"/>
    <path id="Path_4240" data-name="Path 4240" d="M2408.669,2094.334c0-6.274,2.046-11.374,6.142-15.182a22.081,22.081,0,0,1,15.59-5.8c6.141,0,11.046,1.986,14.862,5.875a19.778,19.778,0,0,1,5.721,14.474c0,1.352-.08,2.621-.152,3.818h-30.3c.245,4.77,4.379,7.871,10.655,7.871a13.79,13.79,0,0,0,9.786-3.9l6.907,6.6a23.157,23.157,0,0,1-17.245,7.306c-6.6,0-11.843-1.9-15.908-5.638s-6.038-8.825-6.038-15.11Zm30.37-4.535c0-3.736-3.889-6.674-8.658-6.674-5.169,0-9.387,2.938-9.7,6.674Z" transform="translate(-1588.344 -1583.434)" fill="#333"/>
    <path id="Path_4241" data-name="Path 4241" d="M2459.317,2101.095c2.221,2.63,6.438,4.371,10.962,4.371,4.095,0,6.05-1.107,6.05-3.256a2.178,2.178,0,0,0-1.351-1.9,21.224,21.224,0,0,0-4.853-1.6c-2.384-.554-4.217-1.117-5.4-1.5-6.143-2.15-9.214-5.8-9.214-11.137a11.1,11.1,0,0,1,4.524-9.458,17.662,17.662,0,0,1,11.057-3.42,19.063,19.063,0,0,1,13.756,5.119l-5.65,7.791a11.966,11.966,0,0,0-8.425-2.939c-2.548,0-3.971,1.024-3.971,2.539,0,1.023.389,1.6,1.669,2.15,1.5.633,4.842,1.2,9.295,2.783,6.6,2.221,9.866,6.039,9.866,11.362,0,8.189-5.886,13.522-17.657,13.522-7.789,0-13.594-2.384-17.482-7.165Z" transform="translate(-1587.31 -1583.438)" fill="#333"/>
    <path id="Path_4245" data-name="Path 4245" d="M2141.964,2002.2a12.366,12.366,0,0,1,12.284,12.283v61.233A12.367,12.367,0,0,1,2141.964,2088h-46.646v46.646a12.366,12.366,0,0,1-12.283,12.284h-61.191a12.367,12.367,0,0,1-12.284-12.284v-30.9h55.961a26.99,26.99,0,0,0,21.372-9.561c5.753-6.787,8.19-14.649,8.19-23.544s-2.437-16.746-8.1-23.379a27.815,27.815,0,0,0-11.772-8.189,29.711,29.711,0,0,0-9.8-1.556h-21.5c-10.45,0-14.555-8.762-14.555-17.934s4.094-18.19,14.555-18.19C2077.211,2001.482,2108.676,2002.2,2141.964,2002.2Z" transform="translate(-1597.768 -1585.133)" fill="#4165eb" fill-rule="evenodd"/>
    <path id="Path_4246" data-name="Path 4246" d="M2023.164,1944.56h61.191a12.365,12.365,0,0,1,12.283,12.283v30.9h-51.181a26.668,26.668,0,0,0-17.862,6.141,34.282,34.282,0,0,0-11.065,18.415,39.591,39.591,0,0,0-.911,8.649c0,8.834,2.508,16.583,8.363,23.227a27.127,27.127,0,0,0,21.5,9.734H2066.8c10.5,0,14.566,8.9,14.566,18.057,0,6.254-1.617,12.806-7.39,16.193a14,14,0,0,1-7.165,1.873c-34.885,0-67.877-.715-102.608-.715a12.367,12.367,0,0,1-12.283-12.283v-61.192a12.366,12.366,0,0,1,12.283-12.284h46.647v-46.646a12.364,12.364,0,0,1,12.314-12.356Z" transform="translate(-1599.129 -1586.475)" fill-rule="evenodd" fill="url(#linear-gradient)"/>
  </g>
</svg>
